<svg width="963" height="915" viewBox="0 0 963 915" fill="none" xmlns="http://www.w3.org/2000/svg">
<path d="M20.8463 342.108L238.628 158.834C248.527 150.504 263.347 151.974 271.416 162.088L280.052 172.912C287.809 182.636 286.43 196.765 276.939 204.805L111.75 344.743C100.823 353.999 100.921 370.884 111.956 380.013L282.002 520.698C291.439 528.505 293.102 542.338 285.785 552.16L277.802 562.876C269.877 573.515 254.618 575.261 244.494 566.688L20.7924 377.258C9.92159 368.052 9.94734 351.28 20.8463 342.108Z" fill="white" stroke="#253F74" stroke-width="18"/>
<path d="M315.881 614.57L613.195 77.6243C621.014 63.5044 639.092 59.6062 653.34 68.9679C667.268 78.119 672.312 96.5332 664.671 110.337L367.431 647.33C359.419 661.804 340.705 665.497 326.383 655.429C313.028 646.041 308.408 628.067 315.881 614.57Z" fill="white" stroke="#253F74" stroke-width="18"/>
<path d="M943.803 342.536L739.346 160.258C729.306 151.307 713.76 152.845 705.668 163.59L698.196 173.512C691.015 183.047 692.322 196.492 701.207 204.465L858.001 345.18C868.266 354.391 868.171 370.503 857.799 379.594L696.451 521.01C687.612 528.757 686.036 541.922 692.797 551.536L699.68 561.325C707.606 572.597 723.596 574.417 733.853 565.216L943.856 376.825C954.066 367.666 954.041 351.663 943.803 342.536Z" fill="white" stroke="#253F74" stroke-width="18"/>
<path d="M93.7134 847L65.4934 798.55H46.7934V847H31.3234V728.51H69.5734C78.5267 728.51 86.0634 730.04 92.1834 733.1C98.4167 736.16 103.063 740.297 106.123 745.51C109.183 750.723 110.713 756.673 110.713 763.36C110.713 771.52 108.333 778.717 103.573 784.95C98.9267 791.183 91.9001 795.32 82.4934 797.36L112.243 847H93.7134ZM46.7934 786.14H69.5734C77.9601 786.14 84.2501 784.1 88.4434 780.02C92.6367 775.827 94.7334 770.273 94.7334 763.36C94.7334 756.333 92.6367 750.893 88.4434 747.04C84.3634 743.187 78.0734 741.26 69.5734 741.26H46.7934V786.14ZM128.971 800.08C128.971 790.56 130.898 782.23 134.751 775.09C138.604 767.837 143.874 762.227 150.561 758.26C157.361 754.293 164.898 752.31 173.171 752.31C181.331 752.31 188.414 754.067 194.421 757.58C200.428 761.093 204.904 765.513 207.851 770.84V753.84H223.491V847H207.851V829.66C204.791 835.1 200.201 839.633 194.081 843.26C188.074 846.773 181.048 848.53 173.001 848.53C164.728 848.53 157.248 846.49 150.561 842.41C143.874 838.33 138.604 832.607 134.751 825.24C130.898 817.873 128.971 809.487 128.971 800.08ZM207.851 800.25C207.851 793.223 206.434 787.103 203.601 781.89C200.768 776.677 196.914 772.71 192.041 769.99C187.281 767.157 182.011 765.74 176.231 765.74C170.451 765.74 165.181 767.1 160.421 769.82C155.661 772.54 151.864 776.507 149.031 781.72C146.198 786.933 144.781 793.053 144.781 800.08C144.781 807.22 146.198 813.453 149.031 818.78C151.864 823.993 155.661 828.017 160.421 830.85C165.181 833.57 170.451 834.93 176.231 834.93C182.011 834.93 187.281 833.57 192.041 830.85C196.914 828.017 200.768 823.993 203.601 818.78C206.434 813.453 207.851 807.277 207.851 800.25ZM329.874 753.84L273.774 890.86H257.794L276.154 845.98L238.584 753.84H255.754L284.994 829.32L313.894 753.84H329.874ZM356.985 834.25H402.715V847H339.305V834.25L384.525 766.42H339.645V753.84H402.375V766.42L356.985 834.25ZM507.788 796.85C507.788 799.797 507.618 802.913 507.278 806.2H432.818C433.385 815.38 436.502 822.577 442.168 827.79C447.948 832.89 454.918 835.44 463.078 835.44C469.765 835.44 475.318 833.91 479.738 830.85C484.272 827.677 487.445 823.483 489.258 818.27H505.918C503.425 827.223 498.438 834.533 490.958 840.2C483.478 845.753 474.185 848.53 463.078 848.53C454.238 848.53 446.305 846.547 439.278 842.58C432.365 838.613 426.925 833.003 422.958 825.75C418.992 818.383 417.008 809.883 417.008 800.25C417.008 790.617 418.935 782.173 422.788 774.92C426.642 767.667 432.025 762.113 438.938 758.26C445.965 754.293 454.012 752.31 463.078 752.31C471.918 752.31 479.738 754.237 486.538 758.09C493.338 761.943 498.552 767.27 502.178 774.07C505.918 780.757 507.788 788.35 507.788 796.85ZM491.808 793.62C491.808 787.727 490.505 782.683 487.898 778.49C485.292 774.183 481.722 770.953 477.188 768.8C472.768 766.533 467.838 765.4 462.398 765.4C454.578 765.4 447.892 767.893 442.338 772.88C436.898 777.867 433.782 784.78 432.988 793.62H491.808ZM543.678 768.97C546.398 763.643 550.251 759.507 555.238 756.56C560.338 753.613 566.515 752.14 573.768 752.14V768.12H569.688C552.348 768.12 543.678 777.527 543.678 796.34V847H528.208V753.84H543.678V768.97Z" fill="#3663DC"/>
<path d="M673.838 728.51C686.758 728.51 697.922 730.947 707.328 735.82C716.848 740.58 724.102 747.437 729.088 756.39C734.188 765.343 736.738 775.883 736.738 788.01C736.738 800.137 734.188 810.677 729.088 819.63C724.102 828.47 716.848 835.27 707.328 840.03C697.922 844.677 686.758 847 673.838 847H636.948V728.51H673.838ZM673.838 834.25C689.138 834.25 700.812 830.227 708.858 822.18C716.905 814.02 720.928 802.63 720.928 788.01C720.928 773.277 716.848 761.773 708.688 753.5C700.642 745.227 689.025 741.09 673.838 741.09H652.418V834.25H673.838ZM842.144 796.85C842.144 799.797 841.974 802.913 841.634 806.2H767.174C767.74 815.38 770.857 822.577 776.524 827.79C782.304 832.89 789.274 835.44 797.434 835.44C804.12 835.44 809.674 833.91 814.094 830.85C818.627 827.677 821.8 823.483 823.614 818.27H840.274C837.78 827.223 832.794 834.533 825.314 840.2C817.834 845.753 808.54 848.53 797.434 848.53C788.594 848.53 780.66 846.547 773.634 842.58C766.72 838.613 761.28 833.003 757.314 825.75C753.347 818.383 751.364 809.883 751.364 800.25C751.364 790.617 753.29 782.173 757.144 774.92C760.997 767.667 766.38 762.113 773.294 758.26C780.32 754.293 788.367 752.31 797.434 752.31C806.274 752.31 814.094 754.237 820.894 758.09C827.694 761.943 832.907 767.27 836.534 774.07C840.274 780.757 842.144 788.35 842.144 796.85ZM826.164 793.62C826.164 787.727 824.86 782.683 822.254 778.49C819.647 774.183 816.077 770.953 811.544 768.8C807.124 766.533 802.194 765.4 796.754 765.4C788.934 765.4 782.247 767.893 776.694 772.88C771.254 777.867 768.137 784.78 767.344 793.62H826.164ZM897.244 832.72L926.144 753.84H942.634L906.084 847H888.064L851.514 753.84H868.174L897.244 832.72Z" fill="#253F74"/>
</svg>
